<svg xmlns="http://www.w3.org/2000/svg" viewBox="0 0 64 64">
  <circle cx="32" cy="32" r="32" fill="#04060f"/>
  <path d="M32 8L52 19V33C52 44 43 52 32 56C21 52 12 44 12 33V19L32 8Z" fill="none" stroke="#ffffff" stroke-width="2.5"/>
  <path d="M32 16L44 23V33C44 40 39 46 32 48C25 46 20 40 20 33V23L32 16Z" fill="rgba(255,255,255,0.08)" stroke="#ffffff" stroke-width="1.5"/>
  <circle cx="32" cy="32" r="4" fill="#ffffff"/>
  <path d="M24 32C24 27.6 27.6 24 32 24C36.4 24 40 27.6 40 32" stroke="#ffffff" stroke-width="2" stroke-linecap="round" fill="none"/>
</svg>
